<?xml version="1.0" encoding="UTF-8" standalone="no"?>
<svg
   xmlns:dc="http://purl.org/dc/elements/1.1/"
   xmlns:cc="http://creativecommons.org/ns#"
   xmlns:rdf="http://www.w3.org/1999/02/22-rdf-syntax-ns#"
   xmlns:svg="http://www.w3.org/2000/svg"
   xmlns="http://www.w3.org/2000/svg"
   xmlns:sodipodi="http://sodipodi.sourceforge.net/DTD/sodipodi-0.dtd"
   xmlns:inkscape="http://www.inkscape.org/namespaces/inkscape"
   version="1.1"
   id="Layer_1"
   x="0px"
   y="0px"
   viewBox="0 0 761.63 419.98001"
   xml:space="preserve"
   sodipodi:docname="NY Web Development Logo-A-resized.svg"
   width="761.63"
   height="419.98001"
   inkscape:version="1.0.1 (3bc2e813f5, 2020-09-07)"><metadata
   id="metadata57"><rdf:RDF><cc:Work
       rdf:about=""><dc:format>image/svg+xml</dc:format><dc:type
         rdf:resource="http://purl.org/dc/dcmitype/StillImage" /><dc:title></dc:title></cc:Work></rdf:RDF></metadata><defs
   id="defs55" /><sodipodi:namedview
   pagecolor="#ffffff"
   bordercolor="#666666"
   borderopacity="1"
   objecttolerance="10"
   gridtolerance="10"
   guidetolerance="10"
   inkscape:pageopacity="0"
   inkscape:pageshadow="2"
   inkscape:window-width="1920"
   inkscape:window-height="986"
   id="namedview53"
   showgrid="false"
   fit-margin-top="0"
   fit-margin-left="0"
   fit-margin-right="0"
   fit-margin-bottom="0"
   inkscape:zoom="0.4"
   inkscape:cx="380.81"
   inkscape:cy="209.99"
   inkscape:window-x="-11"
   inkscape:window-y="-11"
   inkscape:window-maximized="1"
   inkscape:current-layer="Layer_1" />
<style
   type="text/css"
   id="style2">
	.st0{fill:url(#SVGID_1_);}
	.st1{fill:url(#SVGID_2_);}
	.st2{fill:#FFFFFF;}
</style>
<g
   id="g50"
   transform="translate(-619.19,-790.01)">
	<g
   id="g18">
		<linearGradient
   id="SVGID_1_"
   gradientUnits="userSpaceOnUse"
   x1="867.02881"
   y1="946.43219"
   x2="1079.4661"
   y2="946.43219">
			<stop
   offset="0"
   style="stop-color:#ED1E79"
   id="stop4" />
			<stop
   offset="1"
   style="stop-color:#00FFFF"
   id="stop6" />
		</linearGradient>
		<path
   class="st0"
   d="m 912.48,914.52 -49.17,28.47 v -56.93 z m 0,63.83 -49.17,28.47 v -56.93 l 3.74,2.3 z m -49.17,92.3 v -56.93 l 49.17,28.47 z m 51.18,-152.68 v 56.93 l -49.17,-28.47 z m 0,63.83 v 56.93 l -49.17,-28.47 z M 864.32,879.15 v -56.93 l 49.17,28.47 z m 51.18,-25.02 v 56.93 l -49.17,-28.47 z m 4.03,56.94 v -56.93 l 49.17,28.47 z m 51.18,31.91 -49.17,-28.47 49.17,-28.47 z"
   id="path9"
   style="fill:url(#SVGID_1_)" />
		<linearGradient
   id="SVGID_2_"
   gradientUnits="userSpaceOnUse"
   x1="814.70288"
   y1="930.04248"
   x2="1134.3542"
   y2="930.04248">
			<stop
   offset="0"
   style="stop-color:#ED1E79"
   id="stop11" />
			<stop
   offset="1"
   style="stop-color:#00FFFF"
   id="stop13" />
		</linearGradient>
		<path
   class="st1"
   d="m 1024.26,914.23 -49.17,28.18 v -56.65 z m 2.01,-3.74 -49.17,-28.18 49.17,-28.47 z m -2.01,-60.1 -49.17,28.18 v -56.65 z m 2.01,-3.73 -49.17,-28.18 49.17,-28.47 z m 0,71.02 v 56.65 L 977.1,945.86 Z m 4.03,56.64 v -56.65 l 49.17,28.18 z m 51.18,38.82 v 56.93 l -49.17,-28.47 z m 53.19,-162.75 -49.17,28.18 v -56.65 z m 0,63.84 -49.17,28.18 v -56.65 z m 0,63.54 -49.17,28.47 V 949.6 Z m -49.16,35.37 49.17,28.47 -49.17,28.47 z m 2.01,-130.83 49.17,-28.47 v 56.65 z m 49.17,35.37 v 56.65 l -49.17,-28.47 z m 0,63.83 v 56.65 l -49.17,-28.47 z"
   id="path16"
   style="fill:url(#SVGID_2_)" />
	</g>
	<g
   id="g48">
		<path
   class="st2"
   d="m 688.6,1148.62 -15.44,49.51 h -6.01 l -12.54,-37.77 c -0.12,-0.37 -0.22,-0.76 -0.33,-1.17 -0.1,-0.41 -0.21,-0.85 -0.33,-1.31 -0.12,0.46 -0.23,0.9 -0.35,1.31 -0.12,0.42 -0.23,0.81 -0.35,1.17 l -12.61,37.77 h -6.01 l -15.44,-49.51 h 5.56 c 0.6,0 1.1,0.15 1.5,0.45 0.4,0.3 0.66,0.68 0.78,1.14 l 10.23,34.41 c 0.16,0.62 0.32,1.29 0.47,2 0.15,0.71 0.29,1.47 0.43,2.28 0.16,-0.81 0.33,-1.57 0.5,-2.3 0.17,-0.73 0.36,-1.39 0.57,-1.99 l 11.64,-34.41 c 0.14,-0.39 0.41,-0.75 0.81,-1.09 0.4,-0.33 0.89,-0.5 1.47,-0.5 h 1.94 c 0.6,0 1.08,0.15 1.45,0.45 0.37,0.3 0.64,0.68 0.83,1.14 l 11.61,34.41 c 0.21,0.6 0.4,1.24 0.57,1.93 0.17,0.69 0.34,1.42 0.5,2.18 0.12,-0.76 0.24,-1.49 0.38,-2.18 0.14,-0.69 0.29,-1.34 0.45,-1.93 l 10.26,-34.41 c 0.12,-0.41 0.37,-0.78 0.78,-1.11 0.4,-0.32 0.89,-0.48 1.47,-0.48 h 5.21 z"
   id="path20" />
		<path
   class="st2"
   d="m 732.86,1193.23 c -0.76,0.92 -1.67,1.72 -2.73,2.4 -1.06,0.68 -2.19,1.24 -3.4,1.68 -1.21,0.44 -2.46,0.77 -3.75,0.98 -1.29,0.22 -2.57,0.33 -3.83,0.33 -2.42,0 -4.65,-0.41 -6.69,-1.23 -2.04,-0.82 -3.8,-2.02 -5.29,-3.59 -1.49,-1.58 -2.64,-3.53 -3.47,-5.86 -0.83,-2.33 -1.24,-5 -1.24,-8.02 0,-2.44 0.37,-4.72 1.12,-6.84 0.75,-2.12 1.83,-3.96 3.23,-5.51 1.4,-1.55 3.12,-2.78 5.15,-3.66 2.03,-0.89 4.31,-1.33 6.84,-1.33 2.1,0 4.04,0.35 5.82,1.05 1.78,0.7 3.33,1.72 4.63,3.04 1.3,1.32 2.32,2.96 3.06,4.91 0.74,1.95 1.11,4.16 1.11,6.65 0,0.97 -0.1,1.61 -0.31,1.93 -0.21,0.32 -0.6,0.48 -1.17,0.48 h -23.39 c 0.07,2.21 0.37,4.13 0.92,5.77 0.54,1.64 1.3,3 2.26,4.09 0.97,1.09 2.12,1.91 3.46,2.45 1.34,0.54 2.83,0.81 4.49,0.81 1.54,0 2.87,-0.18 3.99,-0.54 1.12,-0.36 2.08,-0.74 2.89,-1.16 0.81,-0.42 1.48,-0.8 2.02,-1.16 0.54,-0.36 1.01,-0.54 1.4,-0.54 0.51,0 0.9,0.2 1.17,0.59 z m -4.97,-16.41 c 0,-1.43 -0.2,-2.73 -0.6,-3.92 -0.4,-1.19 -0.99,-2.21 -1.76,-3.08 -0.77,-0.86 -1.71,-1.53 -2.82,-2 -1.11,-0.47 -2.36,-0.71 -3.77,-0.71 -2.95,0 -5.28,0.86 -7,2.57 -1.72,1.72 -2.78,4.09 -3.2,7.13 h 19.15 z"
   id="path22" />
		<path
   class="st2"
   d="m 760.95,1168.18 c 1.47,-1.7 3.14,-3.06 4.99,-4.08 1.85,-1.01 3.99,-1.52 6.41,-1.52 2.05,0 3.9,0.39 5.55,1.17 1.65,0.78 3.05,1.92 4.2,3.4 1.15,1.49 2.03,3.29 2.64,5.41 0.61,2.12 0.92,4.5 0.92,7.15 0,2.83 -0.35,5.41 -1.04,7.74 -0.69,2.33 -1.69,4.31 -2.99,5.96 -1.3,1.65 -2.89,2.93 -4.75,3.84 -1.87,0.91 -3.96,1.36 -6.29,1.36 -2.3,0 -4.24,-0.43 -5.82,-1.3 -1.58,-0.86 -2.95,-2.09 -4.13,-3.68 l -0.31,3.18 c -0.18,0.88 -0.71,1.31 -1.59,1.31 h -3.97 v -50.9 h 6.18 z m 0,21.53 c 1.13,1.52 2.37,2.59 3.71,3.21 1.34,0.62 2.83,0.93 4.44,0.93 3.29,0 5.82,-1.16 7.57,-3.49 1.75,-2.33 2.63,-5.79 2.63,-10.4 0,-4.28 -0.78,-7.43 -2.33,-9.45 -1.56,-2.02 -3.77,-3.02 -6.65,-3.02 -2,0 -3.75,0.46 -5.23,1.38 -1.49,0.92 -2.86,2.22 -4.13,3.9 v 16.94 z"
   id="path24" />
		<path
   class="st2"
   d="m 883.16,1173.4 c 0,3.71 -0.59,7.08 -1.76,10.12 -1.17,3.04 -2.83,5.64 -4.98,7.81 -2.14,2.17 -4.72,3.84 -7.72,5.03 -3.01,1.19 -6.33,1.78 -9.97,1.78 h -18.49 v -49.51 h 18.49 c 3.64,0 6.96,0.59 9.97,1.78 3.01,1.19 5.58,2.87 7.72,5.04 2.14,2.17 3.8,4.79 4.98,7.83 1.17,3.04 1.76,6.41 1.76,10.12 z m -6.87,0 c 0,-3.04 -0.41,-5.76 -1.24,-8.15 -0.83,-2.4 -2,-4.42 -3.52,-6.08 -1.52,-1.66 -3.36,-2.93 -5.53,-3.8 -2.17,-0.88 -4.58,-1.31 -7.26,-1.31 h -11.78 v 38.66 h 11.78 c 2.67,0 5.09,-0.44 7.26,-1.31 2.17,-0.88 4.01,-2.14 5.53,-3.78 1.52,-1.65 2.69,-3.67 3.52,-6.06 0.82,-2.41 1.24,-5.13 1.24,-8.17 z"
   id="path26" />
		<path
   class="st2"
   d="m 933.09,1193.23 c -0.76,0.92 -1.67,1.72 -2.73,2.4 -1.06,0.68 -2.19,1.24 -3.4,1.68 -1.21,0.44 -2.46,0.77 -3.75,0.98 -1.29,0.22 -2.57,0.33 -3.83,0.33 -2.42,0 -4.65,-0.41 -6.69,-1.23 -2.04,-0.82 -3.8,-2.02 -5.29,-3.59 -1.49,-1.58 -2.64,-3.53 -3.47,-5.86 -0.83,-2.33 -1.24,-5 -1.24,-8.02 0,-2.44 0.37,-4.72 1.12,-6.84 0.75,-2.12 1.83,-3.96 3.23,-5.51 1.4,-1.55 3.12,-2.78 5.15,-3.66 2.03,-0.89 4.31,-1.33 6.84,-1.33 2.1,0 4.04,0.35 5.82,1.05 1.78,0.7 3.33,1.72 4.63,3.04 1.3,1.32 2.32,2.96 3.06,4.91 0.74,1.95 1.11,4.16 1.11,6.65 0,0.97 -0.1,1.61 -0.31,1.93 -0.21,0.32 -0.6,0.48 -1.17,0.48 h -23.39 c 0.07,2.21 0.37,4.13 0.92,5.77 0.54,1.64 1.3,3 2.26,4.09 0.97,1.09 2.12,1.91 3.46,2.45 1.34,0.54 2.83,0.81 4.49,0.81 1.54,0 2.87,-0.18 3.99,-0.54 1.12,-0.36 2.08,-0.74 2.89,-1.16 0.81,-0.42 1.48,-0.8 2.02,-1.16 0.54,-0.36 1.01,-0.54 1.4,-0.54 0.51,0 0.9,0.2 1.17,0.59 z m -4.97,-16.41 c 0,-1.43 -0.2,-2.73 -0.6,-3.92 -0.4,-1.19 -0.99,-2.21 -1.76,-3.08 -0.77,-0.86 -1.71,-1.53 -2.82,-2 -1.11,-0.47 -2.36,-0.71 -3.77,-0.71 -2.95,0 -5.28,0.86 -7,2.57 -1.72,1.72 -2.78,4.09 -3.2,7.13 h 19.15 z"
   id="path28" />
		<path
   class="st2"
   d="m 984.23,1163.14 -14.27,35 h -5.53 l -14.27,-35 h 5.01 c 0.51,0 0.92,0.13 1.24,0.38 0.32,0.25 0.54,0.55 0.66,0.9 l 8.88,22.53 c 0.28,0.85 0.52,1.68 0.73,2.49 0.21,0.81 0.4,1.61 0.59,2.42 0.18,-0.81 0.38,-1.61 0.59,-2.42 0.21,-0.81 0.46,-1.64 0.76,-2.49 l 8.98,-22.53 c 0.14,-0.37 0.37,-0.67 0.69,-0.92 0.32,-0.24 0.7,-0.36 1.14,-0.36 z"
   id="path30" />
		<path
   class="st2"
   d="m 1031.15,1193.23 c -0.76,0.92 -1.67,1.72 -2.73,2.4 -1.06,0.68 -2.19,1.24 -3.4,1.68 -1.21,0.44 -2.46,0.77 -3.75,0.98 -1.29,0.22 -2.57,0.33 -3.83,0.33 -2.42,0 -4.65,-0.41 -6.69,-1.23 -2.04,-0.82 -3.8,-2.02 -5.29,-3.59 -1.49,-1.58 -2.64,-3.53 -3.47,-5.86 -0.83,-2.33 -1.24,-5 -1.24,-8.02 0,-2.44 0.37,-4.72 1.12,-6.84 0.75,-2.12 1.83,-3.96 3.23,-5.51 1.4,-1.55 3.12,-2.78 5.15,-3.66 2.03,-0.89 4.31,-1.33 6.84,-1.33 2.1,0 4.04,0.35 5.82,1.05 1.78,0.7 3.33,1.72 4.63,3.04 1.3,1.32 2.32,2.96 3.06,4.91 0.74,1.95 1.11,4.16 1.11,6.65 0,0.97 -0.1,1.61 -0.31,1.93 -0.21,0.32 -0.6,0.48 -1.17,0.48 h -23.39 c 0.07,2.21 0.37,4.13 0.92,5.77 0.54,1.64 1.3,3 2.26,4.09 0.97,1.09 2.12,1.91 3.46,2.45 1.34,0.54 2.83,0.81 4.49,0.81 1.54,0 2.87,-0.18 3.99,-0.54 1.12,-0.36 2.08,-0.74 2.89,-1.16 0.81,-0.42 1.48,-0.8 2.02,-1.16 0.54,-0.36 1.01,-0.54 1.4,-0.54 0.51,0 0.9,0.2 1.17,0.59 z m -4.98,-16.41 c 0,-1.43 -0.2,-2.73 -0.6,-3.92 -0.4,-1.19 -0.99,-2.21 -1.76,-3.08 -0.77,-0.86 -1.71,-1.53 -2.82,-2 -1.11,-0.47 -2.36,-0.71 -3.77,-0.71 -2.95,0 -5.28,0.86 -7,2.57 -1.72,1.72 -2.78,4.09 -3.2,7.13 h 19.15 z"
   id="path32" />
		<path
   class="st2"
   d="m 1059.41,1147.24 v 50.9 h -6.15 v -50.9 z"
   id="path34" />
		<path
   class="st2"
   d="m 1097.94,1162.58 c 2.56,0 4.86,0.43 6.91,1.28 2.05,0.85 3.8,2.06 5.25,3.63 1.45,1.57 2.56,3.46 3.33,5.68 0.77,2.22 1.16,4.71 1.16,7.45 0,2.76 -0.39,5.25 -1.16,7.46 -0.77,2.21 -1.88,4.1 -3.33,5.67 -1.45,1.57 -3.2,2.77 -5.25,3.61 -2.05,0.84 -4.35,1.26 -6.91,1.26 -2.58,0 -4.9,-0.42 -6.96,-1.26 -2.06,-0.84 -3.82,-2.04 -5.27,-3.61 -1.45,-1.57 -2.56,-3.46 -3.33,-5.67 -0.77,-2.21 -1.16,-4.7 -1.16,-7.46 0,-2.74 0.39,-5.22 1.16,-7.45 0.77,-2.22 1.88,-4.12 3.33,-5.68 1.45,-1.57 3.21,-2.78 5.27,-3.63 2.06,-0.85 4.38,-1.28 6.96,-1.28 z m 0,31.24 c 3.46,0 6.03,-1.16 7.74,-3.47 1.7,-2.31 2.56,-5.55 2.56,-9.69 0,-4.17 -0.85,-7.42 -2.56,-9.74 -1.71,-2.33 -4.28,-3.49 -7.74,-3.49 -1.75,0 -3.28,0.3 -4.58,0.9 -1.3,0.6 -2.38,1.46 -3.25,2.59 -0.86,1.13 -1.51,2.52 -1.93,4.16 -0.43,1.65 -0.64,3.51 -0.64,5.58 0,4.15 0.86,7.38 2.57,9.69 1.71,2.31 4.33,3.47 7.83,3.47 z"
   id="path36" />
		<path
   class="st2"
   d="m 1142.06,1168.56 c 1.47,-1.82 3.18,-3.28 5.11,-4.39 1.94,-1.11 4.15,-1.66 6.63,-1.66 2.03,0 3.86,0.39 5.49,1.16 1.64,0.77 3.03,1.91 4.18,3.42 1.15,1.51 2.04,3.38 2.66,5.61 0.62,2.23 0.93,4.8 0.93,7.71 0,2.58 -0.35,4.98 -1.04,7.2 -0.69,2.22 -1.69,4.15 -2.99,5.77 -1.3,1.62 -2.89,2.9 -4.77,3.84 -1.88,0.93 -3.99,1.4 -6.34,1.4 -2.14,0 -3.98,-0.36 -5.51,-1.09 -1.53,-0.73 -2.89,-1.73 -4.06,-3.02 v 15.48 h -6.18 v -46.85 h 3.7 c 0.88,0 1.42,0.43 1.62,1.28 z m 0.31,21.15 c 1.13,1.52 2.36,2.59 3.7,3.21 1.34,0.62 2.83,0.93 4.49,0.93 3.27,0 5.78,-1.16 7.53,-3.49 1.75,-2.33 2.63,-5.64 2.63,-9.95 0,-2.28 -0.2,-4.24 -0.6,-5.87 -0.4,-1.64 -0.98,-2.98 -1.75,-4.03 -0.76,-1.05 -1.69,-1.81 -2.8,-2.3 -1.11,-0.48 -2.36,-0.73 -3.77,-0.73 -2,0 -3.76,0.46 -5.27,1.38 -1.51,0.92 -2.9,2.22 -4.16,3.9 z"
   id="path38" />
		<path
   class="st2"
   d="m 1188.74,1198.14 v -35 h 3.7 c 0.88,0 1.42,0.43 1.62,1.28 l 0.45,3.59 c 1.29,-1.59 2.74,-2.89 4.35,-3.9 1.61,-1.01 3.48,-1.52 5.6,-1.52 2.35,0 4.25,0.66 5.72,1.97 1.46,1.31 2.52,3.09 3.16,5.32 0.51,-1.27 1.16,-2.36 1.95,-3.28 0.79,-0.92 1.69,-1.68 2.68,-2.28 0.99,-0.6 2.04,-1.04 3.16,-1.31 1.12,-0.28 2.25,-0.41 3.4,-0.41 1.84,0 3.48,0.29 4.92,0.88 1.44,0.59 2.66,1.45 3.66,2.57 1,1.13 1.77,2.52 2.3,4.16 0.53,1.65 0.79,3.53 0.79,5.65 v 22.29 h -6.19 v -22.29 c 0,-2.74 -0.6,-4.82 -1.8,-6.24 -1.2,-1.42 -2.93,-2.13 -5.18,-2.13 -1.01,0 -1.98,0.18 -2.89,0.54 -0.91,0.36 -1.71,0.88 -2.4,1.57 -0.69,0.69 -1.24,1.56 -1.64,2.61 -0.4,1.05 -0.6,2.26 -0.6,3.65 v 22.29 h -6.19 v -22.29 c 0,-2.81 -0.56,-4.91 -1.69,-6.29 -1.13,-1.38 -2.78,-2.07 -4.94,-2.07 -1.52,0 -2.93,0.41 -4.22,1.23 -1.29,0.82 -2.48,1.93 -3.56,3.33 v 26.09 h -6.16 z"
   id="path40" />
		<path
   class="st2"
   d="m 1287.8,1193.23 c -0.76,0.92 -1.67,1.72 -2.73,2.4 -1.06,0.68 -2.19,1.24 -3.4,1.68 -1.21,0.44 -2.46,0.77 -3.75,0.98 -1.29,0.22 -2.57,0.33 -3.83,0.33 -2.42,0 -4.65,-0.41 -6.69,-1.23 -2.04,-0.82 -3.8,-2.02 -5.29,-3.59 -1.49,-1.58 -2.64,-3.53 -3.47,-5.86 -0.83,-2.33 -1.24,-5 -1.24,-8.02 0,-2.44 0.37,-4.72 1.12,-6.84 0.75,-2.12 1.83,-3.96 3.23,-5.51 1.4,-1.55 3.12,-2.78 5.15,-3.66 2.03,-0.89 4.31,-1.33 6.84,-1.33 2.1,0 4.04,0.35 5.82,1.05 1.78,0.7 3.33,1.72 4.63,3.04 1.3,1.32 2.32,2.96 3.06,4.91 0.74,1.95 1.11,4.16 1.11,6.65 0,0.97 -0.1,1.61 -0.31,1.93 -0.21,0.32 -0.6,0.48 -1.17,0.48 h -23.39 c 0.07,2.21 0.37,4.13 0.92,5.77 0.54,1.64 1.3,3 2.26,4.09 0.97,1.09 2.12,1.91 3.46,2.45 1.34,0.54 2.83,0.81 4.49,0.81 1.54,0 2.87,-0.18 3.99,-0.54 1.12,-0.36 2.08,-0.74 2.89,-1.16 0.81,-0.42 1.48,-0.8 2.02,-1.16 0.54,-0.36 1.01,-0.54 1.4,-0.54 0.51,0 0.9,0.2 1.17,0.59 z m -4.97,-16.41 c 0,-1.43 -0.2,-2.73 -0.6,-3.92 -0.4,-1.19 -0.99,-2.21 -1.76,-3.08 -0.77,-0.86 -1.71,-1.53 -2.82,-2 -1.11,-0.47 -2.36,-0.71 -3.77,-0.71 -2.95,0 -5.28,0.86 -7,2.57 -1.72,1.72 -2.78,4.09 -3.2,7.13 h 19.15 z"
   id="path42" />
		<path
   class="st2"
   d="m 1315.51,1168.22 c 0.76,-0.85 1.57,-1.62 2.42,-2.31 0.85,-0.69 1.76,-1.28 2.71,-1.78 0.96,-0.5 1.97,-0.88 3.04,-1.14 1.07,-0.26 2.23,-0.4 3.47,-0.4 1.91,0 3.6,0.32 5.06,0.95 1.46,0.63 2.68,1.53 3.66,2.7 0.98,1.17 1.72,2.56 2.23,4.2 0.51,1.64 0.76,3.44 0.76,5.42 v 22.29 h -6.18 v -22.29 c 0,-2.65 -0.6,-4.7 -1.81,-6.17 -1.21,-1.46 -3.05,-2.19 -5.51,-2.19 -1.82,0 -3.52,0.44 -5.1,1.31 -1.58,0.88 -3.04,2.06 -4.37,3.56 v 25.78 h -6.18 v -35 h 3.7 c 0.88,0 1.42,0.43 1.62,1.28 z"
   id="path44" />
		<path
   class="st2"
   d="m 1372.35,1198.69 c -2.76,0 -4.89,-0.77 -6.38,-2.31 -1.49,-1.54 -2.23,-3.77 -2.23,-6.67 v -21.42 h -4.22 c -0.37,0 -0.68,-0.11 -0.93,-0.33 -0.25,-0.22 -0.38,-0.56 -0.38,-1.02 v -2.45 l 5.74,-0.73 1.42,-10.81 c 0.07,-0.35 0.22,-0.63 0.47,-0.85 0.24,-0.22 0.56,-0.33 0.95,-0.33 h 3.11 v 12.06 h 10.12 v 4.46 h -10.12 v 21.01 c 0,1.47 0.36,2.57 1.07,3.28 0.71,0.71 1.64,1.07 2.76,1.07 0.64,0 1.2,-0.09 1.68,-0.26 0.48,-0.17 0.88,-0.36 1.23,-0.57 0.35,-0.21 0.64,-0.4 0.88,-0.57 0.24,-0.17 0.45,-0.26 0.64,-0.26 0.32,0 0.61,0.2 0.86,0.59 l 1.8,2.94 c -1.06,0.99 -2.34,1.77 -3.84,2.33 -1.5,0.56 -3.04,0.84 -4.63,0.84 z"
   id="path46" />
	</g>
</g>
</svg>
